<svg width="1440" height="234" viewBox="0 0 1440 234" fill="none" xmlns="http://www.w3.org/2000/svg">
<path d="M480.578 160.88C525.079 169.256 574.144 170.738 616.826 153.693C603.844 152.258 592.412 141.654 590.006 128.816C602.967 138.982 620.956 140.944 637.054 137.451C650.608 134.51 663.089 128.117 674.981 120.877C676.664 118.868 678.882 117.378 681.626 116.738C679.433 118.141 677.214 119.518 674.981 120.877C669.865 126.985 669.731 137.923 675.079 144.616C682.187 153.511 694.57 156.122 705.95 156.477C731.234 157.265 756.709 149.628 777.389 135.06C778.955 133.957 780.244 131.75 780.455 130.002C779.961 129.108 779.378 128.263 778.69 127.495C780.15 127.595 780.617 128.665 780.455 130.002C783.633 135.74 782.836 143.632 778.178 148.347C788.551 148.496 798.885 150.944 808.222 155.466C813.748 158.142 819.112 161.592 825.209 162.325C836.355 163.666 846.261 155.751 854.685 148.33C857.657 151.267 852.446 155.266 850.601 159.014C847.402 165.512 856.078 172.083 863.311 171.707C867.329 171.498 871.264 170.247 875.199 169.323C874.567 171.05 873.764 172.745 872.819 174.394C877.748 165.8 878.622 155.894 873.506 147.31C861.286 126.805 823.278 119.052 796.75 129.58C789.5 109.678 773.839 90.0025 748.419 81.9665C723.953 74.2319 690.391 82.0454 681.892 100.476C684.372 90.8462 667.18 82.9808 652.963 81.6409C630.067 79.4833 605.707 82.451 586.858 92.402C568.01 102.353 555.742 119.901 559.082 136.966C539.67 129.045 515.574 125.783 495.316 132.417C480.666 137.215 469.437 148.174 467.348 159.706C467.454 159.12 467.579 158.535 467.732 157.953C472.077 158.827 476.496 160.111 480.578 160.88Z" fill="#F6FBFF"/>
<path d="M778.69 127.495C779.378 128.264 779.961 129.109 780.456 130.002C780.618 128.665 780.151 127.595 778.69 127.495Z" fill="#DDE6ED"/>
<path d="M674.981 120.877C677.214 119.518 679.433 118.14 681.627 116.738C678.883 117.378 676.664 118.868 674.981 120.877Z" fill="#DDE6ED"/>
<path d="M867.447 181.584C868.802 180.149 870.037 178.642 871.128 177.074C871.152 177.039 871.174 177.004 871.198 176.969C871.711 176.227 872.189 175.47 872.639 174.704C872.699 174.601 872.76 174.498 872.819 174.394C873.765 172.745 874.567 171.05 875.199 169.322C871.264 170.247 867.329 171.497 863.311 171.706C856.078 172.082 847.402 165.512 850.601 159.014C852.446 155.265 857.657 151.267 854.685 148.33C846.261 155.751 836.355 163.665 825.209 162.325C819.112 161.592 813.748 158.141 808.222 155.465C798.885 150.944 788.551 148.495 778.178 148.346C782.836 143.631 783.633 135.74 780.456 130.001C780.244 131.75 778.955 133.957 777.389 135.059C756.709 149.628 731.234 157.265 705.95 156.477C694.57 156.122 682.187 153.511 675.08 144.616C669.731 137.923 669.865 126.985 674.981 120.877C663.089 128.117 650.608 134.51 637.055 137.451C620.956 140.944 602.968 138.982 590.006 128.816C592.412 141.654 603.844 152.258 616.826 153.693C574.145 170.737 525.079 169.256 480.578 160.879C476.496 160.111 472.077 158.827 467.732 157.952C467.579 158.535 467.454 159.12 467.348 159.706C467.322 159.845 467.305 159.984 467.282 160.123C467.211 160.564 467.152 161.004 467.108 161.446C467.09 161.623 467.075 161.801 467.062 161.978C467.03 162.403 467.013 162.828 467.007 163.253C467.005 163.415 466.999 163.578 467 163.74C467.011 164.897 467.12 166.052 467.333 167.202C467.363 167.367 467.403 167.531 467.438 167.696C467.525 168.106 467.623 168.516 467.736 168.924C467.79 169.117 467.847 169.31 467.907 169.503C468.031 169.902 468.171 170.3 468.321 170.697C468.387 170.87 468.448 171.043 468.519 171.216C468.749 171.776 468.999 172.335 469.284 172.888C485.922 205.144 539.957 191.101 573.124 193.321C616.17 196.202 649.679 222.254 691.686 224.054C711.331 224.894 731.22 217.262 741.752 204.847C746.372 199.402 749.456 193.006 756.067 188.864C766.486 182.337 782.088 183.573 794.933 186.903C807.778 190.234 820.234 195.343 833.828 195.514C834.949 195.529 836.055 195.491 837.152 195.427C837.48 195.409 837.804 195.379 838.13 195.354C838.93 195.291 839.723 195.208 840.508 195.106C840.83 195.064 841.152 195.025 841.472 194.977C842.466 194.826 843.45 194.651 844.417 194.439C844.479 194.426 844.544 194.417 844.606 194.403C845.641 194.172 846.656 193.9 847.658 193.604C847.934 193.522 848.204 193.432 848.477 193.346C849.226 193.109 849.966 192.856 850.693 192.584C850.966 192.483 851.239 192.383 851.509 192.276C852.397 191.925 853.272 191.555 854.126 191.155C854.186 191.127 854.247 191.103 854.307 191.075C855.24 190.633 856.148 190.157 857.036 189.66C857.228 189.553 857.413 189.44 857.602 189.331C858.307 188.923 858.998 188.499 859.672 188.058C859.868 187.93 860.064 187.803 860.258 187.673C861.055 187.133 861.836 186.578 862.586 185.996C862.602 185.984 862.62 185.972 862.636 185.959C863.444 185.331 864.221 184.677 864.971 184.004C865.065 183.919 865.154 183.832 865.247 183.747C865.887 183.162 866.505 182.561 867.1 181.946C867.216 181.826 867.333 181.706 867.447 181.584Z" fill="#DDE6ED"/>
<path d="M1147.58 158.88C1192.08 167.256 1241.14 168.738 1283.83 151.693C1270.84 150.258 1259.41 139.654 1257.01 126.816C1269.97 136.982 1287.96 138.944 1304.05 135.451C1317.61 132.51 1330.09 126.117 1341.98 118.877C1343.66 116.868 1345.88 115.378 1348.63 114.738C1346.43 116.141 1344.21 117.518 1341.98 118.877C1336.86 124.985 1336.73 135.923 1342.08 142.616C1349.19 151.511 1361.57 154.122 1372.95 154.477C1398.23 155.265 1423.71 147.628 1444.39 133.06C1445.95 131.957 1447.24 129.75 1447.46 128.002C1446.96 127.108 1446.38 126.263 1445.69 125.495C1447.15 125.595 1447.62 126.665 1447.46 128.002C1450.63 133.74 1449.84 141.632 1445.18 146.347C1455.55 146.496 1465.88 148.944 1475.22 153.466C1480.75 156.142 1486.11 159.592 1492.21 160.325C1503.35 161.666 1513.26 153.751 1521.68 146.33C1524.66 149.267 1519.45 153.266 1517.6 157.014C1514.4 163.512 1523.08 170.083 1530.31 169.707C1534.33 169.498 1538.26 168.247 1542.2 167.323C1541.57 169.05 1540.76 170.745 1539.82 172.394C1544.75 163.8 1545.62 153.894 1540.51 145.31C1528.29 124.805 1490.28 117.052 1463.75 127.58C1456.5 107.678 1440.84 88.0025 1415.42 79.9665C1390.95 72.2319 1357.39 80.0454 1348.89 98.4765C1351.37 88.8462 1334.18 80.9808 1319.96 79.6409C1297.07 77.4833 1272.71 80.451 1253.86 90.402C1235.01 100.353 1222.74 117.901 1226.08 134.966C1206.67 127.045 1182.57 123.783 1162.32 130.417C1147.67 135.215 1136.44 146.174 1134.35 157.706C1134.45 157.12 1134.58 156.535 1134.73 155.953C1139.08 156.827 1143.5 158.111 1147.58 158.88Z" fill="#F6FBFF"/>
<path d="M1341.98 118.877C1344.21 117.518 1346.43 116.14 1348.63 114.738C1345.88 115.378 1343.66 116.868 1341.98 118.877Z" fill="#DDE6ED"/>
<path d="M1534.45 179.584C1535.8 178.149 1537.04 176.642 1538.13 175.074C1538.15 175.039 1538.17 175.004 1538.2 174.969C1538.71 174.227 1539.19 173.47 1539.64 172.704C1539.7 172.601 1539.76 172.498 1539.82 172.394C1540.76 170.745 1541.57 169.05 1542.2 167.322C1538.26 168.247 1534.33 169.497 1530.31 169.706C1523.08 170.082 1514.4 163.512 1517.6 157.014C1519.45 153.265 1524.66 149.267 1521.68 146.33C1513.26 153.751 1503.35 161.665 1492.21 160.325C1486.11 159.592 1480.75 156.141 1475.22 153.465C1465.88 148.944 1455.55 146.495 1445.18 146.346C1449.84 141.631 1450.63 133.74 1447.46 128.001C1447.24 129.75 1445.95 131.957 1444.39 133.059C1423.71 147.628 1398.23 155.265 1372.95 154.477C1361.57 154.122 1349.19 151.511 1342.08 142.616C1336.73 135.923 1336.86 124.985 1341.98 118.877C1330.09 126.117 1317.61 132.51 1304.05 135.451C1287.96 138.944 1269.97 136.982 1257.01 126.816C1259.41 139.654 1270.84 150.258 1283.83 151.693C1241.14 168.737 1192.08 167.256 1147.58 158.879C1143.5 158.111 1139.08 156.827 1134.73 155.952C1134.58 156.535 1134.45 157.12 1134.35 157.706C1134.32 157.845 1134.3 157.984 1134.28 158.123C1134.21 158.564 1134.15 159.004 1134.11 159.446C1134.09 159.623 1134.08 159.801 1134.06 159.978C1134.03 160.403 1134.01 160.828 1134.01 161.253C1134 161.415 1134 161.578 1134 161.74C1134.01 162.897 1134.12 164.052 1134.33 165.202C1134.36 165.367 1134.4 165.531 1134.44 165.696C1134.52 166.106 1134.62 166.516 1134.74 166.924C1134.79 167.117 1134.85 167.31 1134.91 167.503C1135.03 167.902 1135.17 168.3 1135.32 168.697C1135.39 168.87 1135.45 169.043 1135.52 169.216C1135.75 169.776 1136 170.335 1136.28 170.888C1152.92 203.144 1206.96 189.101 1240.12 191.321C1283.17 194.202 1316.68 220.254 1358.69 222.054C1378.33 222.894 1398.22 215.262 1408.75 202.847C1413.37 197.402 1416.46 191.006 1423.07 186.864C1433.49 180.337 1449.09 181.573 1461.93 184.903C1474.78 188.234 1487.23 193.343 1500.83 193.514C1501.95 193.529 1503.05 193.491 1504.15 193.427C1504.48 193.409 1504.8 193.379 1505.13 193.354C1505.93 193.291 1506.72 193.208 1507.51 193.106C1507.83 193.064 1508.15 193.025 1508.47 192.977C1509.47 192.826 1510.45 192.651 1511.42 192.439C1511.48 192.426 1511.54 192.417 1511.61 192.403C1512.64 192.172 1513.66 191.9 1514.66 191.604C1514.93 191.522 1515.2 191.432 1515.48 191.346C1516.23 191.109 1516.97 190.856 1517.69 190.584C1517.97 190.483 1518.24 190.383 1518.51 190.276C1519.4 189.925 1520.27 189.555 1521.13 189.155C1521.19 189.127 1521.25 189.103 1521.31 189.075C1522.24 188.633 1523.15 188.157 1524.04 187.66C1524.23 187.553 1524.41 187.44 1524.6 187.331C1525.31 186.923 1526 186.499 1526.67 186.058C1526.87 185.93 1527.06 185.803 1527.26 185.673C1528.06 185.133 1528.84 184.578 1529.59 183.996C1529.6 183.984 1529.62 183.972 1529.64 183.959C1530.44 183.331 1531.22 182.677 1531.97 182.004C1532.07 181.919 1532.15 181.832 1532.25 181.747C1532.89 181.162 1533.5 180.561 1534.1 179.946C1534.22 179.826 1534.33 179.706 1534.45 179.584Z" fill="#DDE6ED"/>
<path d="M-46.7634 192.804C-18.3537 187.305 10.697 185.123 39.6095 186.318C32.5825 182.991 26.3811 177.936 21.7053 171.725C28.2037 173.071 35.0506 172.696 41.3631 170.649C43.0513 170.101 44.7624 169.395 45.9607 168.086C48.8118 164.971 47.4617 159.628 44.2814 156.85C41.1012 154.072 36.7375 153.188 32.5882 152.404C47.3467 151.491 61.3478 165.059 60.8989 179.839C89.3202 187.182 119.341 188.267 148.218 182.996C150.998 182.488 154.153 181.636 155.363 179.082C157.25 175.095 152.983 171.067 149.261 168.702C153.889 170.113 159.334 168.14 161.986 164.094C164.207 160.705 164.303 156.105 162.435 152.537C161.982 151.884 161.545 151.231 161.131 150.586C161.642 151.185 162.072 151.843 162.435 152.537C166.253 158.04 171.438 163.44 177.8 162.309C185.392 160.959 189.167 150.861 196.816 149.888C200.873 149.372 204.683 151.644 208.554 152.958C212.426 154.273 217.617 154.16 219.553 150.558C222.185 145.661 216.221 140.523 210.905 138.892C206.754 137.619 202.424 136.931 198.083 136.855C196.114 136.821 194.042 136.888 192.309 135.953C190.577 135.018 189.445 132.638 190.573 131.025C203.256 132.918 217.422 128.983 225.023 118.655C232.624 108.328 231.01 91.4535 220.017 84.8518C226.32 84.2264 230.14 91.3457 234.99 95.419C242.793 101.972 254.284 100.696 264.341 99.0572C266.675 98.6767 269.158 98.2258 270.883 96.6079C274.658 93.068 272.406 86.5858 268.854 82.8217C260.086 73.528 244.823 69.9392 240.536 57.9024C249.22 63.1079 257.463 69.1634 266.768 73.1541C276.074 77.1448 286.888 78.9048 296.296 75.1629C305.705 71.4209 312.827 61.0083 310.418 51.1737C314.872 60.0905 313.817 71.4925 307.802 79.4402C311.49 86.2506 314.032 93.7797 313.009 101.457C322.129 103.715 331.249 105.974 340.368 108.233C340.362 105 339.527 101.772 337.964 98.9411C345.092 108.128 357.002 113.379 368.592 112.443C371.575 124.354 352.258 133.955 356.285 145.554C357.96 150.377 364.084 153.082 368.777 151.071C370.222 150.452 371.507 149.47 373.01 149.011C376.503 147.944 380.229 149.957 382.822 152.529C385.415 155.101 387.394 158.293 390.278 160.534C398.641 167.034 411.904 162.659 417.782 153.847C423.661 145.036 423.748 133.57 421.995 123.123C426.274 140.558 427.934 160.709 416.868 174.844C412.078 180.962 404.698 187.019 406.283 194.625C418.158 195.723 430.269 194.181 441.489 190.143C443.838 189.298 446.354 188.331 448.76 188.994C451.287 189.691 453.003 191.998 455.257 193.335C459.584 195.901 465.033 194.569 470.02 193.911C479.872 192.613 490.105 194.368 498.961 198.876C527.31 213.308 560.674 198.424 592.472 199.318C599.668 199.52 607.215 199.854 613.402 203.534C615.398 204.721 617.173 206.382 618.561 208.298C626.456 208.141 634.341 207.434 642.134 206.158C627.528 191.016 605.27 183.665 584.519 187.13C576.785 188.422 568.99 191.117 561.287 189.65C555.117 188.476 549.761 184.747 543.842 182.644C522.376 175.015 498.812 189.741 476.304 186.214C467.382 184.816 459.146 180.605 450.36 178.515C441.573 176.425 431.195 176.956 425.006 183.533C433.539 171.053 440.058 156.715 440.711 141.61C441.364 126.505 435.383 110.605 423.044 101.867C410.706 93.1289 391.877 93.4901 381.595 104.574C373.285 84.7259 346.784 74.992 327.603 84.743C332.487 64.1746 323.333 41.0174 305.704 29.3493C288.075 17.6813 263.182 18.3028 246.157 30.8362C237.414 37.2727 228.553 48.7547 222.217 57.5712C211.226 53.1635 198.183 60.1887 192.383 70.5134C186.582 80.838 186.48 93.3818 187.804 105.15C178.809 99.7111 166.11 106.405 162.656 116.333C159.202 126.261 162.958 137.436 169.098 145.968C160.568 135.759 144.594 130.822 133.494 138.156C122.393 145.489 123.122 166.181 135.895 169.902C114.817 170.989 93.7398 172.076 72.6622 173.162C66.1947 163.304 58.9299 153.469 48.7017 147.605C38.4735 141.741 24.5523 140.827 15.4848 148.362C6.41724 155.898 6.14102 172.769 16.5445 178.316C-3.51077 179.735 -23.5661 181.154 -43.6213 182.574C-49.5786 182.995 -56.3018 183.815 -59.8781 188.598C-62.5338 192.15 -60.1295 196.33 -56.2734 198.166C-54.7876 195.163 -50.4226 193.513 -46.7634 192.804Z" fill="#F3FAFE"/>
<path d="M162.434 152.537C162.071 151.843 161.642 151.185 161.131 150.586C161.544 151.231 161.982 151.884 162.434 152.537Z" fill="#D9E5ED"/>
<path d="M618.561 208.298C617.173 206.382 615.398 204.721 613.402 203.534C607.215 199.854 599.668 199.52 592.472 199.318C560.674 198.424 527.31 213.308 498.961 198.876C490.105 194.368 479.872 192.613 470.02 193.911C465.033 194.569 459.584 195.901 455.257 193.335C453.003 191.998 451.287 189.691 448.76 188.995C446.354 188.332 443.838 189.298 441.489 190.143C430.268 194.181 418.158 195.723 406.283 194.625C404.698 187.019 412.078 180.962 416.868 174.844C427.934 160.709 426.274 140.558 421.995 123.124C423.748 133.57 423.661 145.036 417.782 153.847C411.904 162.659 398.641 167.035 390.278 160.534C387.394 158.293 385.415 155.101 382.822 152.529C380.229 149.957 376.503 147.944 373.01 149.011C371.507 149.471 370.222 150.452 368.777 151.071C364.084 153.082 357.96 150.378 356.285 145.554C352.258 133.955 371.575 124.354 368.591 112.444C357.002 113.379 345.091 108.129 337.964 98.9412C339.527 101.772 340.362 105 340.368 108.233C331.249 105.974 322.129 103.716 313.009 101.457C314.032 93.7798 311.489 86.2507 307.802 79.4403C313.817 71.4926 314.872 60.0906 310.418 51.1738C312.827 61.0084 305.705 71.421 296.296 75.163C286.888 78.9049 276.074 77.1449 266.768 73.1542C257.463 69.1635 249.22 63.108 240.536 57.9025C244.822 69.9393 260.086 73.5281 268.854 82.8218C272.406 86.5859 274.658 93.0681 270.883 96.608C269.158 98.2259 266.675 98.6768 264.341 99.0573C254.284 100.696 242.793 101.972 234.99 95.4191C230.14 91.3458 226.32 84.2265 220.017 84.8519C231.01 91.4536 232.624 108.328 225.023 118.656C217.422 128.983 203.256 132.919 190.573 131.025C189.445 132.638 190.577 135.018 192.309 135.953C194.041 136.888 196.114 136.821 198.082 136.855C202.424 136.931 206.754 137.619 210.905 138.893C216.221 140.523 222.185 145.661 219.552 150.558C217.616 154.16 212.426 154.273 208.554 152.958C204.682 151.644 200.873 149.372 196.816 149.888C189.167 150.862 185.392 160.959 177.8 162.309C171.438 163.44 166.252 158.04 162.435 152.537C164.303 156.106 164.206 160.705 161.986 164.094C159.334 168.141 153.889 170.113 149.26 168.702C152.983 171.067 157.25 175.096 155.363 179.082C154.153 181.636 150.998 182.489 148.218 182.996C119.341 188.268 89.3202 187.182 60.8988 179.839C61.3477 165.059 47.3467 151.492 32.5882 152.405C36.7375 153.188 41.1012 154.073 44.2814 156.851C47.4617 159.629 48.8118 164.972 45.9607 168.086C44.7624 169.396 43.0513 170.101 41.3631 170.649C35.0506 172.697 28.2037 173.071 21.7053 171.725C26.3811 177.937 32.5825 182.991 39.6095 186.318C10.697 185.123 -18.3537 187.305 -46.7634 192.804C-50.4226 193.513 -54.7876 195.164 -56.2734 198.167C-55.6221 198.477 -54.9289 198.718 -54.2127 198.881C-54.1923 198.886 -54.1728 198.893 -54.1523 198.898C-53.8366 198.968 -53.5147 199.014 -53.1913 199.05C-53.1363 199.057 -53.0829 199.07 -53.0277 199.075C-52.6524 199.111 -52.2731 199.124 -51.892 199.111C45.4887 195.83 143.092 199.177 240.019 209.123C260.658 211.241 282.934 213.329 300.829 202.831C309.732 218.581 323.843 230.594 341.928 231.103C360.012 231.612 378.059 222.08 387.833 206.856C399.968 216.758 417.743 210.141 432.764 205.705C452.922 199.751 474.496 198.649 495.157 202.517C507.023 204.738 518.724 208.584 530.796 208.517C546.253 208.432 562.166 200.432 577.216 203.958C578.758 204.319 580.307 204.651 581.859 204.968C582.316 205.061 582.775 205.147 583.233 205.236C584.372 205.458 585.514 205.67 586.658 205.869C587.131 205.951 587.603 206.032 588.077 206.11C589.367 206.322 590.659 206.519 591.953 206.7C592.228 206.739 592.501 206.782 592.775 206.819C594.424 207.042 596.076 207.243 597.731 207.417C597.768 207.42 597.805 207.423 597.842 207.427C599.426 207.592 601.013 207.731 602.601 207.851C602.878 207.872 603.154 207.89 603.43 207.909C604.869 208.01 606.309 208.094 607.749 208.159C607.959 208.168 608.169 208.179 608.379 208.188C611.77 208.326 615.166 208.365 618.56 208.298H618.561Z" fill="#D9E5ED"/>
<path d="M1348.89 101.803C1343.27 92.9061 1334.31 86.64 1325.06 81.607C1292.64 63.9557 1253.52 58.9838 1217.71 67.9626C1219.35 48.4591 1210.94 28.3764 1195.9 15.856C1164.94 -9.90915 1118.66 0.462631 1080.64 13.7621C1068.65 17.9575 1056.45 22.4591 1046.66 30.5568C1036.87 38.6544 1029.78 51.1386 1031.43 63.7362C1025 56.2412 995.34 70.8304 990.822 79.6129C986.303 88.3952 988.338 99.0744 991.577 108.405C985.592 93.8987 970.033 83.9243 954.354 84.5401C938.674 85.1561 923.946 96.3201 919.117 111.251C909.868 95.1736 885.135 91.9386 870.784 103.69C856.435 115.441 853.922 138.378 863.664 154.161C872.388 168.297 889.255 176.222 905.905 176.102C779.694 183.96 653.303 188.917 526.864 190.938C523.7 191.627 524.973 196.691 527.644 198.521C530.316 200.352 534.059 201.81 534.326 205.037C534.336 205.15 534.317 205.245 534.309 205.347C534.64 205.373 534.97 205.397 535.3 205.423C535.818 204.852 536.379 204.3 537.039 203.797C547.422 195.863 575.228 201.459 587.722 201.486C664.924 201.657 742.131 199.604 819.215 195.334C863.387 192.887 907.518 189.712 951.585 185.809C939.875 182.735 929.397 175.196 922.762 165.069C938.482 165.898 955.251 164.032 967.77 154.489C977.11 147.369 982.896 134.921 981.552 123.659C980.549 119.92 979.337 116.265 977.564 112.826C979.818 116.127 981.094 119.825 981.552 123.659C983.664 131.536 984.835 139.783 988.295 147.165C993.396 158.051 1007.87 166.597 1017.21 159.03C1023.83 153.667 1025.18 142.184 1033.42 140.022C1039.61 138.4 1045.34 143.291 1050.76 146.681C1056.19 150.069 1065.06 151.133 1067.48 145.211C1069.8 139.514 1063.61 134.34 1058.96 130.31C1048.18 120.968 1042.4 106.155 1044.02 91.9833C1050.58 103.894 1064.08 110.788 1077.58 112.372C1091.09 113.956 1104.7 110.93 1117.74 107.057C1142.23 99.7785 1168.15 86.3727 1180.93 65.6208C1181.56 58.1293 1184.05 50.8177 1188.52 44.7485C1187.47 52.4045 1184.79 59.3446 1180.93 65.6208C1180 76.7318 1183.21 88.2421 1190.5 96.7133C1208.92 118.109 1241.83 115.56 1270.03 116.911C1286.41 117.697 1305.97 123.146 1310.3 138.971C1323.99 136.182 1336.27 127.096 1342.94 114.817C1343.49 136.672 1332.75 158.511 1315.1 171.418C1322.62 173.694 1327.82 179.241 1330.74 186.176C1343.36 173.399 1352.33 157.233 1355 139.327C1356.91 126.522 1355.81 112.746 1348.89 101.803Z" fill="#F3FAFE"/>
<path d="M534.309 205.347C532.907 205.235 531.504 205.139 530.102 205.025C527.7 207.024 534.098 208.169 534.309 205.347Z" fill="#F3FAFE"/>
<path d="M670.572 212.319C625.433 211.283 580.322 208.984 535.312 205.424C580.323 208.984 625.432 211.286 670.572 212.319Z" fill="#F3FAFE"/>
<path d="M1330.74 186.177C1325.16 191.823 1318.87 196.8 1312.08 200.971C1318.87 196.801 1325.16 191.824 1330.74 186.177Z" fill="#F3FAFE"/>
<path d="M981.552 123.659C981.095 119.825 979.819 116.127 977.564 112.826C979.338 116.265 980.55 119.92 981.552 123.659Z" fill="#D9E5ED"/>
<path d="M1315.1 171.418C1332.75 158.511 1343.49 136.672 1342.94 114.817C1336.27 127.097 1323.99 136.182 1310.3 138.971C1305.97 123.146 1286.41 117.697 1270.03 116.912C1241.83 115.561 1208.92 118.11 1190.5 96.7135C1183.21 88.2423 1180 76.732 1180.93 65.6211C1168.15 86.373 1142.23 99.7787 1117.74 107.057C1104.7 110.93 1091.09 113.956 1077.58 112.372C1064.08 110.789 1050.58 103.895 1044.02 91.9836C1042.4 106.155 1048.18 120.969 1058.96 130.31C1063.61 134.34 1069.8 139.514 1067.48 145.212C1065.06 151.133 1056.19 150.07 1050.76 146.681C1045.34 143.292 1039.61 138.4 1033.42 140.023C1025.18 142.185 1023.83 153.668 1017.21 159.03C1007.87 166.597 993.397 158.051 988.295 147.166C984.835 139.783 983.664 131.536 981.552 123.659C982.897 134.921 977.111 147.369 967.771 154.489C955.251 164.032 938.482 165.898 922.762 165.069C929.397 175.196 939.876 182.736 951.586 185.81C907.519 189.712 863.387 192.887 819.215 195.335C742.131 199.605 664.924 201.657 587.722 201.487C575.229 201.459 547.423 195.863 537.039 203.797C536.38 204.301 535.818 204.852 535.301 205.423C535.304 205.423 535.308 205.424 535.312 205.424C580.323 208.984 625.433 211.283 670.572 212.319C670.666 212.321 670.759 212.323 670.853 212.325C678.266 212.494 685.68 212.63 693.094 212.731C693.37 212.735 693.646 212.736 693.922 212.739C701.146 212.835 708.369 212.901 715.593 212.933C716.184 212.935 716.774 212.932 717.365 212.934C724.284 212.959 731.203 212.96 738.121 212.925C739.027 212.921 739.932 212.907 740.838 212.901C747.443 212.861 754.049 212.803 760.654 212.708C761.969 212.689 763.285 212.656 764.601 212.635C770.801 212.537 777.001 212.427 783.2 212.28C785.01 212.238 786.819 212.176 788.628 212.129C794.342 211.981 800.056 211.83 805.769 211.642C808.149 211.563 810.529 211.46 812.909 211.375C818.062 211.19 823.214 211.009 828.365 210.791C831.456 210.66 834.546 210.499 837.636 210.356C842.084 210.151 846.532 209.957 850.978 209.727C855.287 209.504 859.593 209.244 863.901 208.998C867.138 208.813 870.377 208.647 873.613 208.449C881.177 207.986 888.738 207.488 896.297 206.954C906.589 206.226 916.989 205.446 927.376 205.047C931.531 204.888 935.684 204.79 939.826 204.781C941.898 204.776 943.967 204.793 946.033 204.837C950.164 204.923 954.281 205.113 958.377 205.433C964.522 205.913 970.618 206.688 976.64 207.85C978.647 208.237 980.646 208.668 982.636 209.145C986.616 210.099 990.559 211.24 994.457 212.595C996.192 213.198 997.926 213.844 999.659 214.51C1003.13 215.843 1006.59 217.256 1010.07 218.567C1018.78 221.844 1027.58 224.479 1036.72 223.61C1039.14 223.38 1041.49 222.913 1043.79 222.268C1048.4 220.978 1052.81 218.977 1057.16 216.746C1058.61 216.002 1060.05 215.233 1061.49 214.455C1064.37 212.901 1067.23 211.315 1070.13 209.84C1070.85 209.471 1071.58 209.11 1072.31 208.757C1083.95 203.114 1098.87 200.06 1109.1 207.976C1111.55 209.869 1113.52 212.244 1115.41 214.707C1117.3 217.17 1119.11 219.721 1121.24 221.964C1124.57 225.467 1128.46 228.052 1132.72 229.907C1139.12 232.688 1146.34 233.824 1153.76 233.948C1161.17 234.072 1168.77 233.183 1175.9 231.912C1194.47 228.606 1224.75 218.772 1242.48 212.332C1243.84 212.71 1245.2 213.035 1246.56 213.335C1246.88 213.405 1247.2 213.474 1247.51 213.54C1248.85 213.817 1250.2 214.067 1251.55 214.273C1251.74 214.301 1251.92 214.322 1252.11 214.349C1253.32 214.524 1254.54 214.668 1255.76 214.787C1256.07 214.818 1256.39 214.852 1256.71 214.879C1258.03 214.993 1259.36 215.076 1260.69 215.123C1261 215.134 1261.31 215.136 1261.63 215.144C1262.75 215.171 1263.87 215.175 1264.99 215.157C1265.31 215.152 1265.64 215.153 1265.96 215.143C1267.25 215.107 1268.53 215.038 1269.82 214.943C1270.23 214.912 1270.64 214.874 1271.06 214.837C1272.1 214.745 1273.14 214.634 1274.18 214.504C1274.52 214.461 1274.86 214.428 1275.2 214.381C1276.41 214.214 1277.63 214.013 1278.84 213.795C1279.35 213.703 1279.86 213.606 1280.36 213.506C1281.31 213.318 1282.26 213.115 1283.2 212.897C1283.88 212.739 1284.56 212.571 1285.25 212.397C1286.05 212.19 1286.86 211.976 1287.66 211.747C1288.27 211.575 1288.87 211.4 1289.48 211.215C1290.29 210.966 1291.1 210.702 1291.91 210.43C1292.8 210.131 1293.69 209.817 1294.57 209.491C1295.12 209.289 1295.66 209.085 1296.2 208.873C1296.91 208.597 1297.62 208.321 1298.32 208.029C1298.62 207.902 1298.92 207.765 1299.22 207.635C1300.61 207.038 1301.99 206.412 1303.36 205.75C1303.7 205.585 1304.04 205.417 1304.38 205.247C1306.85 204.013 1309.28 202.678 1311.65 201.241C1311.79 201.152 1311.94 201.061 1312.08 200.971C1318.87 196.8 1325.17 191.823 1330.74 186.178L1330.74 186.176C1327.82 179.241 1322.62 173.695 1315.1 171.418Z" fill="#D9E5ED"/>
<path d="M1180.93 65.6204C1184.79 59.3442 1187.47 52.4041 1188.52 44.748C1184.05 50.8173 1181.56 58.1288 1180.93 65.6204Z" fill="#D9E5ED"/>
</svg>
