<svg width="1272" height="1369" viewBox="0 0 1272 1369" fill="none" xmlns="http://www.w3.org/2000/svg">
<path d="M9.83535 139.31C42.0703 145.378 77.6113 146.451 108.528 134.104C99.1246 133.065 90.8433 125.384 89.1005 116.085C98.4895 123.449 111.52 124.87 123.181 122.34C132.999 120.209 142.039 115.579 150.653 110.334C151.872 108.879 153.479 107.8 155.467 107.336C153.878 108.352 152.271 109.35 150.653 110.334C146.947 114.759 146.85 122.682 150.725 127.53C155.873 133.973 164.843 135.864 173.086 136.121C191.401 136.692 209.854 131.16 224.834 120.607C225.968 119.809 226.901 118.21 227.055 116.944C226.697 116.297 226.274 115.684 225.776 115.128C226.834 115.201 227.172 115.975 227.055 116.944C229.357 121.1 228.779 126.817 225.405 130.232C232.919 130.34 240.404 132.113 247.168 135.389C251.171 137.327 255.056 139.826 259.472 140.357C267.546 141.328 274.722 135.596 280.824 130.22C282.976 132.347 279.202 135.244 277.865 137.959C275.548 142.666 281.833 147.425 287.072 147.153C289.983 147.002 292.833 146.096 295.684 145.426C295.226 146.677 294.644 147.905 293.959 149.1C297.53 142.874 298.163 135.699 294.457 129.481C285.605 114.628 258.074 109.012 238.858 116.639C233.606 102.222 222.262 87.9698 203.849 82.1488C186.127 76.5462 161.815 82.206 155.659 95.5567C157.456 88.5809 145.002 82.8835 134.704 81.913C118.119 80.3501 100.474 82.4998 86.8208 89.7079C73.1677 96.916 64.2811 109.627 66.7006 121.988C52.639 116.251 35.1849 113.888 20.5113 118.693C9.89955 122.169 1.76515 130.107 0.251953 138.461C0.328853 138.036 0.419553 137.612 0.530153 137.19C3.67755 137.824 6.87875 138.754 9.83535 139.31Z" fill="#F6FBFF"/>
<path d="M225.776 115.128C226.275 115.685 226.697 116.297 227.055 116.944C227.172 115.975 226.834 115.201 225.776 115.128Z" fill="#DDE6ED"/>
<path d="M150.653 110.334C152.27 109.35 153.878 108.352 155.467 107.336C153.479 107.8 151.872 108.879 150.653 110.334Z" fill="#DDE6ED"/>
<path d="M290.068 154.308C291.049 153.268 291.944 152.177 292.734 151.041C292.752 151.016 292.768 150.991 292.785 150.965C293.157 150.427 293.503 149.879 293.829 149.324C293.873 149.25 293.916 149.175 293.959 149.1C294.644 147.905 295.225 146.677 295.684 145.426C292.833 146.096 289.983 147.002 287.072 147.153C281.832 147.425 275.548 142.666 277.865 137.959C279.202 135.244 282.976 132.347 280.824 130.22C274.722 135.596 267.546 141.329 259.472 140.357C255.056 139.826 251.171 137.327 247.168 135.389C240.404 132.113 232.919 130.34 225.405 130.232C228.779 126.817 229.357 121.1 227.055 116.944C226.901 118.21 225.968 119.809 224.834 120.607C209.854 131.16 191.4 136.692 173.086 136.121C164.843 135.864 155.873 133.973 150.725 127.53C146.85 122.682 146.947 114.759 150.653 110.334C142.039 115.579 132.999 120.209 123.181 122.34C111.52 124.87 98.4895 123.449 89.1005 116.085C90.8433 125.384 99.1246 133.065 108.528 134.105C77.6113 146.451 42.0702 145.378 9.8353 139.31C6.8787 138.754 3.6775 137.824 0.530097 137.19C0.419497 137.612 0.328797 138.036 0.251897 138.461C0.233597 138.561 0.220897 138.662 0.204597 138.763C0.152997 139.082 0.110097 139.401 0.0780973 139.721C0.0651973 139.849 0.0545973 139.978 0.0449973 140.107C0.0219973 140.414 0.00949732 140.722 0.00519732 141.03C0.00359732 141.147 -0.00100268 141.265 0.000197317 141.383C0.00829732 142.22 0.0871973 143.057 0.240897 143.89C0.262997 144.01 0.292097 144.129 0.317297 144.248C0.379997 144.545 0.450997 144.842 0.533197 145.138C0.571997 145.278 0.613397 145.417 0.656797 145.557C0.746597 145.846 0.847897 146.134 0.957097 146.422C1.0048 146.547 1.0488 146.673 1.1001 146.798C1.267 147.204 1.4479 147.608 1.6547 148.009C13.7067 171.374 52.847 161.201 76.872 162.81C108.053 164.897 132.325 183.768 162.753 185.072C176.984 185.68 191.39 180.152 199.02 171.159C202.366 167.215 204.6 162.581 209.389 159.581C216.936 154.853 228.237 155.749 237.542 158.161C246.846 160.573 255.868 164.274 265.715 164.399C266.528 164.409 267.329 164.382 268.123 164.336C268.361 164.322 268.596 164.301 268.832 164.282C269.411 164.237 269.986 164.177 270.554 164.103C270.788 164.072 271.021 164.044 271.253 164.009C271.972 163.9 272.685 163.773 273.386 163.62C273.431 163.61 273.478 163.604 273.523 163.594C274.273 163.427 275.008 163.229 275.733 163.015C275.933 162.956 276.129 162.89 276.327 162.828C276.87 162.656 277.405 162.473 277.932 162.276C278.13 162.203 278.328 162.13 278.523 162.053C279.167 161.799 279.8 161.53 280.419 161.241C280.462 161.22 280.507 161.203 280.55 161.183C281.226 160.863 281.883 160.518 282.527 160.158C282.666 160.08 282.799 159.999 282.937 159.919C283.447 159.624 283.948 159.317 284.436 158.998C284.578 158.905 284.72 158.813 284.86 158.718C285.438 158.328 286.003 157.925 286.547 157.504C286.559 157.495 286.571 157.486 286.583 157.477C287.168 157.022 287.731 156.548 288.275 156.061C288.343 156 288.407 155.936 288.474 155.875C288.938 155.451 289.386 155.016 289.816 154.57C289.901 154.483 289.985 154.396 290.068 154.308Z" fill="#DDE6ED"/>
<path d="M509.045 1302.7C555.08 1311.37 605.836 1312.9 649.988 1295.27C636.559 1293.78 624.732 1282.81 622.244 1269.53C635.652 1280.05 654.261 1282.08 670.913 1278.46C684.934 1275.42 697.845 1268.81 710.147 1261.32C711.888 1259.24 714.182 1257.7 717.021 1257.04C714.752 1258.49 712.456 1259.91 710.147 1261.32C704.854 1267.64 704.716 1278.95 710.249 1285.88C717.601 1295.08 730.411 1297.78 742.182 1298.15C768.338 1298.96 794.691 1291.06 816.083 1275.99C817.703 1274.85 819.036 1272.57 819.255 1270.76C818.744 1269.83 818.141 1268.96 817.429 1268.17C818.94 1268.27 819.423 1269.38 819.255 1270.76C822.542 1276.7 821.717 1284.86 816.899 1289.74C827.629 1289.89 838.319 1292.42 847.978 1297.1C853.695 1299.87 859.244 1303.44 865.55 1304.2C877.08 1305.58 887.328 1297.4 896.042 1289.72C899.116 1292.76 893.726 1296.89 891.817 1300.77C888.508 1307.49 897.483 1314.29 904.965 1313.9C909.122 1313.68 913.192 1312.39 917.264 1311.43C916.609 1313.22 915.779 1314.98 914.801 1316.68C919.901 1307.79 920.805 1297.54 915.512 1288.66C902.87 1267.45 863.553 1259.43 836.111 1270.32C828.612 1249.73 812.41 1229.38 786.115 1221.07C760.806 1213.07 726.087 1221.15 717.295 1240.22C719.861 1230.25 702.076 1222.12 687.37 1220.73C663.685 1218.5 638.486 1221.57 618.988 1231.86C599.49 1242.16 586.799 1260.31 590.254 1277.96C570.173 1269.77 545.247 1266.39 524.292 1273.26C509.137 1278.22 497.52 1289.56 495.359 1301.49C495.469 1300.88 495.599 1300.28 495.757 1299.67C500.251 1300.58 504.823 1301.91 509.045 1302.7Z" fill="#F6FBFF"/>
<path d="M817.43 1268.17C818.141 1268.96 818.744 1269.84 819.256 1270.76C819.423 1269.38 818.941 1268.27 817.43 1268.17Z" fill="#DDE6ED"/>
<path d="M710.147 1261.32C712.457 1259.91 714.752 1258.49 717.022 1257.04C714.183 1257.7 711.888 1259.24 710.147 1261.32Z" fill="#DDE6ED"/>
<path d="M909.245 1324.12C910.646 1322.63 911.924 1321.07 913.052 1319.45C913.077 1319.42 913.1 1319.38 913.124 1319.34C913.656 1318.58 914.15 1317.79 914.615 1317C914.678 1316.89 914.74 1316.79 914.802 1316.68C915.78 1314.98 916.61 1313.22 917.264 1311.43C913.193 1312.39 909.123 1313.68 904.966 1313.9C897.483 1314.29 888.508 1307.49 891.818 1300.77C893.727 1296.89 899.117 1292.76 896.043 1289.72C887.329 1297.4 877.081 1305.58 865.551 1304.2C859.244 1303.44 853.696 1299.87 847.979 1297.1C838.32 1292.42 827.63 1289.89 816.899 1289.74C821.718 1284.86 822.543 1276.69 819.256 1270.76C819.037 1272.57 817.703 1274.85 816.084 1275.99C794.691 1291.06 768.338 1298.96 742.183 1298.15C730.411 1297.78 717.601 1295.08 710.249 1285.88C704.716 1278.95 704.854 1267.64 710.147 1261.32C697.846 1268.81 684.935 1275.42 670.914 1278.46C654.261 1282.08 635.652 1280.05 622.244 1269.53C624.733 1282.81 636.559 1293.78 649.989 1295.27C605.836 1312.9 555.08 1311.37 509.046 1302.7C504.823 1301.91 500.252 1300.58 495.757 1299.67C495.599 1300.28 495.47 1300.88 495.36 1301.49C495.334 1301.63 495.315 1301.77 495.292 1301.92C495.218 1302.37 495.157 1302.83 495.112 1303.29C495.093 1303.47 495.078 1303.65 495.064 1303.84C495.031 1304.28 495.014 1304.72 495.007 1305.16C495.005 1305.32 494.999 1305.49 495 1305.66C495.012 1306.86 495.125 1308.05 495.344 1309.24C495.376 1309.41 495.417 1309.58 495.453 1309.75C495.543 1310.18 495.644 1310.6 495.761 1311.02C495.817 1311.22 495.876 1311.42 495.938 1311.62C496.066 1312.03 496.211 1312.45 496.367 1312.86C496.435 1313.04 496.498 1313.21 496.571 1313.39C496.809 1313.97 497.068 1314.55 497.363 1315.12C514.574 1348.49 570.47 1333.96 604.78 1336.26C649.31 1339.24 683.973 1366.19 727.427 1368.05C747.749 1368.92 768.324 1361.03 779.219 1348.18C783.997 1342.55 787.188 1335.93 794.027 1331.65C804.805 1324.9 820.945 1326.18 834.232 1329.62C847.519 1333.07 860.404 1338.35 874.467 1338.53C875.627 1338.54 876.77 1338.5 877.905 1338.44C878.245 1338.42 878.58 1338.39 878.917 1338.36C879.745 1338.3 880.565 1338.21 881.377 1338.11C881.71 1338.06 882.044 1338.02 882.374 1337.97C883.402 1337.82 884.42 1337.64 885.421 1337.42C885.485 1337.4 885.552 1337.39 885.616 1337.38C886.687 1337.14 887.737 1336.86 888.773 1336.55C889.059 1336.47 889.339 1336.37 889.621 1336.29C890.396 1336.04 891.161 1335.78 891.914 1335.5C892.196 1335.39 892.478 1335.29 892.758 1335.18C893.676 1334.82 894.581 1334.43 895.465 1334.02C895.526 1333.99 895.59 1333.97 895.651 1333.94C896.617 1333.48 897.556 1332.99 898.475 1332.47C898.673 1332.36 898.864 1332.25 899.06 1332.13C899.789 1331.71 900.504 1331.27 901.202 1330.82C901.404 1330.68 901.607 1330.55 901.807 1330.42C902.632 1329.86 903.44 1329.28 904.216 1328.68C904.233 1328.67 904.251 1328.66 904.267 1328.64C905.103 1327.99 905.907 1327.32 906.683 1326.62C906.781 1326.53 906.873 1326.44 906.969 1326.36C907.631 1325.75 908.27 1325.13 908.885 1324.49C909.006 1324.37 909.126 1324.24 909.245 1324.12Z" fill="#DDE6ED"/>
<path d="M155.787 740.881C155.071 740.718 154.378 740.477 153.727 740.167C154.378 740.477 155.07 740.719 155.787 740.881Z" fill="#F3FAFE"/>
<path d="M163.237 734.804C191.646 729.305 220.697 727.123 249.61 728.318C242.583 724.991 236.381 719.936 231.705 713.725C238.204 715.071 245.051 714.696 251.363 712.649C253.051 712.101 254.762 711.395 255.961 710.086C258.812 706.971 257.462 701.628 254.281 698.85C251.101 696.072 246.738 695.188 242.588 694.404C257.347 693.491 271.348 707.059 270.899 721.839C299.32 729.182 329.341 730.267 358.218 724.996C360.998 724.488 364.153 723.636 365.363 721.082C367.25 717.095 362.983 713.067 359.261 710.702C363.889 712.113 369.334 710.14 371.986 706.094C374.207 702.705 374.303 698.105 372.435 694.537C371.982 693.884 371.545 693.231 371.131 692.586C371.642 693.185 372.072 693.843 372.435 694.537C376.253 700.04 381.438 705.44 387.8 704.309C395.392 702.959 399.167 692.861 406.816 691.888C410.873 691.372 414.683 693.644 418.554 694.958C422.426 696.273 427.617 696.16 429.553 692.558C432.185 687.661 426.221 682.523 420.905 680.892C416.754 679.619 412.424 678.931 408.083 678.855C406.114 678.821 404.042 678.888 402.309 677.953C400.577 677.018 399.445 674.638 400.573 673.025C413.256 674.918 427.422 670.983 435.023 660.655C442.624 650.328 441.01 633.453 430.017 626.852C436.32 626.226 440.14 633.346 444.99 637.419C452.793 643.972 464.284 642.696 474.341 641.057C476.675 640.677 479.158 640.226 480.883 638.608C484.658 635.068 482.406 628.586 478.854 624.822C470.086 615.528 454.823 611.939 450.536 599.902C459.22 605.108 467.463 611.163 476.768 615.154C486.074 619.145 496.888 620.905 506.296 617.163C515.705 613.421 522.827 603.008 520.418 593.174C524.872 602.09 523.817 613.492 517.802 621.44C521.49 628.251 524.032 635.78 523.009 643.457C532.129 645.715 541.249 647.974 550.368 650.233C550.362 647 549.527 643.772 547.964 640.941C555.092 650.128 567.002 655.379 578.592 654.443C581.575 666.354 562.258 675.955 566.285 687.554C567.96 692.377 574.084 695.082 578.777 693.071C580.222 692.452 581.507 691.47 583.01 691.011C586.503 689.944 590.229 691.957 592.822 694.529C595.415 697.101 597.394 700.293 600.278 702.534C608.641 709.034 621.904 704.659 627.782 695.847C633.661 687.036 633.748 675.57 631.995 665.123C636.274 682.558 637.934 702.709 626.868 716.844C622.078 722.962 614.698 729.019 616.283 736.625C628.158 737.723 640.269 736.181 651.489 732.143C653.838 731.298 656.354 730.331 658.76 730.994C661.287 731.691 663.003 733.998 665.257 735.335C669.584 737.901 675.033 736.569 680.02 735.911C689.872 734.613 700.105 736.368 708.961 740.876C737.31 755.308 770.674 740.424 802.472 741.318C809.668 741.52 817.215 741.854 823.402 745.534C825.398 746.721 827.173 748.382 828.561 750.298C836.456 750.141 844.341 749.434 852.134 748.158C837.528 733.016 815.27 725.665 794.519 729.13C786.785 730.422 778.99 733.117 771.287 731.65C765.117 730.476 759.761 726.747 753.842 724.644C732.376 717.015 708.812 731.741 686.304 728.214C677.382 726.816 669.146 722.605 660.36 720.515C651.573 718.425 641.195 718.956 635.006 725.533C643.539 713.053 650.058 698.715 650.711 683.61C651.364 668.505 645.383 652.605 633.044 643.867C620.706 635.129 601.877 635.49 591.595 646.574C583.285 626.726 556.784 616.992 537.603 626.743C542.487 606.175 533.333 583.017 515.704 571.349C498.075 559.681 473.182 560.303 456.157 572.836C447.414 579.273 438.553 590.755 432.217 599.571C421.226 595.163 408.183 602.189 402.383 612.513C396.582 622.838 396.48 635.382 397.804 647.15C388.809 641.711 376.11 648.405 372.656 658.333C369.202 668.261 372.958 679.436 379.098 687.968C370.568 677.759 354.594 672.822 343.494 680.156C332.393 687.489 333.122 708.181 345.895 711.902C324.817 712.989 303.74 714.076 282.662 715.162C276.195 705.304 268.93 695.469 258.702 689.605C248.474 683.741 234.552 682.827 225.485 690.362C216.417 697.898 216.141 714.769 226.545 720.316C206.489 721.735 186.434 723.154 166.379 724.574C160.421 724.995 153.698 725.815 150.122 730.598C147.466 734.15 149.871 738.33 153.727 740.166C155.212 737.163 159.577 735.513 163.237 734.804Z" fill="#F3FAFE"/>
<path d="M372.434 694.537C372.071 693.843 371.642 693.185 371.131 692.586C371.544 693.231 371.982 693.884 372.434 694.537Z" fill="#D9E5ED"/>
<path d="M828.561 750.298C827.173 748.382 825.398 746.721 823.402 745.534C817.215 741.854 809.668 741.52 802.472 741.318C770.674 740.424 737.31 755.308 708.961 740.876C700.105 736.368 689.872 734.613 680.02 735.911C675.033 736.569 669.584 737.901 665.257 735.335C663.003 733.998 661.287 731.691 658.76 730.995C656.354 730.332 653.838 731.298 651.489 732.143C640.268 736.181 628.158 737.723 616.283 736.625C614.698 729.019 622.078 722.962 626.868 716.844C637.934 702.709 636.274 682.558 631.995 665.124C633.748 675.57 633.661 687.036 627.782 695.847C621.904 704.659 608.641 709.035 600.278 702.534C597.394 700.293 595.415 697.101 592.822 694.529C590.229 691.957 586.503 689.944 583.01 691.011C581.507 691.471 580.222 692.452 578.777 693.071C574.084 695.082 567.96 692.378 566.285 687.554C562.258 675.955 581.575 666.354 578.591 654.444C567.002 655.379 555.091 650.129 547.964 640.941C549.527 643.772 550.362 647 550.368 650.233C541.249 647.974 532.129 645.716 523.009 643.457C524.032 635.78 521.489 628.251 517.802 621.44C523.817 613.493 524.872 602.091 520.418 593.174C522.827 603.008 515.705 613.421 506.296 617.163C496.888 620.905 486.074 619.145 476.768 615.154C467.463 611.164 459.22 605.108 450.536 599.903C454.822 611.939 470.086 615.528 478.854 624.822C482.406 628.586 484.658 635.068 480.883 638.608C479.158 640.226 476.675 640.677 474.341 641.057C464.284 642.696 452.793 643.972 444.99 637.419C440.14 633.346 436.32 626.227 430.017 626.852C441.01 633.454 442.624 650.328 435.023 660.656C427.422 670.983 413.256 674.919 400.573 673.025C399.445 674.638 400.577 677.018 402.309 677.953C404.041 678.888 406.114 678.821 408.082 678.855C412.424 678.931 416.754 679.619 420.905 680.893C426.221 682.523 432.185 687.661 429.552 692.558C427.616 696.16 422.426 696.273 418.554 694.958C414.682 693.644 410.873 691.372 406.816 691.888C399.167 692.862 395.392 702.959 387.8 704.309C381.438 705.44 376.252 700.04 372.435 694.537C374.303 698.106 374.206 702.705 371.986 706.094C369.334 710.141 363.889 712.113 359.26 710.702C362.983 713.067 367.25 717.096 365.363 721.082C364.153 723.636 360.998 724.489 358.218 724.996C329.341 730.268 299.32 729.182 270.899 721.839C271.348 707.059 257.347 693.492 242.588 694.405C246.737 695.188 251.101 696.073 254.281 698.851C257.462 701.629 258.812 706.972 255.961 710.086C254.762 711.396 253.051 712.101 251.363 712.649C245.051 714.697 238.204 715.071 231.705 713.725C236.381 719.937 242.582 724.991 249.609 728.318C220.697 727.123 191.646 729.305 163.237 734.804C159.577 735.513 155.212 737.164 153.727 740.167C154.378 740.477 155.071 740.718 155.787 740.881C155.808 740.886 155.827 740.893 155.848 740.898C156.163 740.968 156.485 741.014 156.809 741.05C156.864 741.057 156.917 741.07 156.972 741.075C157.348 741.111 157.727 741.124 158.108 741.111C255.489 737.83 353.092 741.177 450.019 751.123C470.658 753.241 492.934 755.329 510.829 744.831C519.732 760.581 533.843 772.594 551.928 773.103C570.012 773.612 588.059 764.08 597.833 748.856C609.968 758.758 627.743 752.141 642.764 747.705C662.922 741.751 684.496 740.649 705.157 744.517C717.023 746.738 728.724 750.584 740.796 750.517C756.253 750.432 772.166 742.432 787.216 745.958C788.758 746.319 790.307 746.651 791.859 746.968C792.316 747.061 792.775 747.147 793.233 747.236C794.372 747.458 795.514 747.67 796.658 747.869C797.131 747.951 797.603 748.032 798.077 748.11C799.367 748.322 800.659 748.519 801.953 748.7C802.228 748.739 802.501 748.782 802.775 748.819C804.424 749.042 806.076 749.243 807.731 749.417C807.768 749.42 807.805 749.423 807.842 749.427C809.426 749.592 811.013 749.731 812.601 749.851C812.878 749.872 813.154 749.89 813.43 749.909C814.869 750.01 816.309 750.094 817.749 750.159C817.959 750.168 818.169 750.179 818.379 750.188C821.77 750.326 825.166 750.365 828.56 750.298H828.561Z" fill="#D9E5ED"/>
<path d="M1032.56 64.8172C1028.98 59.1523 1023.28 55.1628 1017.39 51.9583C996.746 40.7199 971.839 37.5544 949.038 43.2711C950.083 30.8534 944.732 18.067 935.153 10.0954C915.442 -6.30905 885.976 0.294552 861.77 8.76215C854.134 11.4334 846.367 14.2995 840.134 19.4552C833.9 24.6109 829.386 32.5593 830.44 40.5802C826.344 35.8082 807.46 45.097 804.583 50.6887C801.707 56.2803 803.002 63.0796 805.064 69.02C801.254 59.7843 791.348 53.4337 781.365 53.8258C771.381 54.218 762.004 61.326 758.93 70.8321C753.041 60.596 737.294 58.5363 728.157 66.0182C719.021 73.5003 717.421 88.1036 723.623 98.1529C729.178 107.153 739.917 112.199 750.518 112.122C670.161 117.125 589.689 120.281 509.187 121.568C507.172 122.007 507.983 125.231 509.684 126.396C511.384 127.562 513.768 128.49 513.938 130.545C513.944 130.617 513.932 130.677 513.927 130.742C514.137 130.759 514.348 130.774 514.558 130.791C514.887 130.427 515.245 130.076 515.665 129.755C522.276 124.704 539.98 128.266 547.934 128.284C597.088 128.393 646.245 127.086 695.324 124.367C723.447 122.809 751.545 120.788 779.602 118.303C772.147 116.346 765.475 111.545 761.251 105.098C771.259 105.625 781.936 104.437 789.907 98.3614C795.854 93.8282 799.538 85.9027 798.681 78.732C798.043 76.352 797.271 74.0244 796.142 71.8349C797.578 73.937 798.39 76.2911 798.681 78.732C800.026 83.7473 800.772 88.9984 802.975 93.6986C806.223 100.629 815.438 106.07 821.386 101.253C825.602 97.8383 826.459 90.5273 831.706 89.1507C835.645 88.1176 839.294 91.232 842.747 93.3899C846.2 95.5476 851.852 96.2246 853.389 92.4545C854.869 88.8268 850.924 85.5328 847.963 82.9669C841.1 77.0192 837.426 67.5879 838.457 58.5648C842.633 66.1485 851.224 70.5377 859.823 71.5461C868.421 72.5545 877.091 70.6279 885.389 68.1618C900.984 63.5279 917.488 54.9926 925.622 41.7801C926.022 37.0103 927.61 32.3551 930.455 28.4909C929.785 33.3654 928.082 37.7841 925.622 41.7801C925.028 48.8543 927.073 56.1828 931.716 61.5763C943.443 75.1989 964.397 73.576 982.351 74.4361C992.784 74.9361 1005.24 78.4057 1007.99 88.4814C1016.71 86.7054 1024.52 80.9209 1028.77 73.1028C1029.12 87.0177 1022.29 100.922 1011.05 109.14C1015.84 110.589 1019.15 114.12 1021.01 118.536C1029.04 110.401 1034.75 100.109 1036.45 88.708C1037.67 80.555 1036.97 71.784 1032.56 64.8172Z" fill="#F3FAFE"/>
<path d="M513.927 130.742C513.034 130.671 512.141 130.61 511.248 130.537C509.719 131.81 513.792 132.539 513.927 130.742Z" fill="#F3FAFE"/>
<path d="M600.684 135.181C571.945 134.522 543.223 133.058 514.565 130.791C543.223 133.058 571.944 134.524 600.684 135.181Z" fill="#F3FAFE"/>
<path d="M1021.01 118.537C1017.46 122.132 1013.45 125.3 1009.13 127.956C1013.45 125.301 1017.46 122.132 1021.01 118.537Z" fill="#F3FAFE"/>
<path d="M798.682 78.7322C798.39 76.2913 797.578 73.9371 796.143 71.835C797.272 74.0245 798.043 76.3521 798.682 78.7322Z" fill="#D9E5ED"/>
<path d="M1011.05 109.14C1022.29 100.922 1029.12 87.0176 1028.77 73.1027C1024.52 80.9208 1016.71 86.7053 1007.99 88.4813C1005.24 78.4056 992.784 74.936 982.351 74.4361C964.397 73.576 943.443 75.1988 931.716 61.5762C927.073 56.1827 925.029 48.8542 925.622 41.78C917.489 54.9925 900.984 63.5278 885.39 68.1617C877.091 70.6278 868.422 72.5544 859.823 71.546C851.224 70.5376 842.633 66.1484 838.457 58.5647C837.426 67.5878 841.1 77.0192 847.964 82.9668C850.925 85.5327 854.869 88.8267 853.39 92.4544C851.852 96.2245 846.2 95.5475 842.747 93.3898C839.295 91.2319 835.645 88.1175 831.707 89.1506C826.459 90.5272 825.602 97.8382 821.386 101.253C815.438 106.07 806.223 100.629 802.975 93.6985C800.772 88.9983 800.027 83.7473 798.682 78.732C799.538 85.9027 795.854 93.8282 789.907 98.3613C781.936 104.437 771.26 105.625 761.251 105.098C765.475 111.545 772.147 116.346 779.603 118.303C751.546 120.788 723.448 122.809 695.324 124.367C646.245 127.086 597.088 128.393 547.935 128.284C539.98 128.266 522.276 124.704 515.665 129.755C515.245 130.076 514.888 130.427 514.559 130.791C514.561 130.791 514.563 130.791 514.566 130.791C543.224 133.058 571.945 134.522 600.685 135.181C600.744 135.182 600.803 135.183 600.863 135.185C605.583 135.292 610.303 135.379 615.024 135.443C615.2 135.446 615.375 135.446 615.551 135.448C620.15 135.51 624.749 135.552 629.349 135.572C629.725 135.573 630.101 135.571 630.477 135.572C634.882 135.588 639.287 135.589 643.692 135.567C644.269 135.564 644.845 135.555 645.422 135.552C649.627 135.526 653.833 135.489 658.038 135.429C658.876 135.417 659.714 135.396 660.552 135.382C664.499 135.32 668.446 135.25 672.393 135.156C673.545 135.129 674.697 135.09 675.849 135.06C679.487 134.966 683.125 134.87 686.763 134.75C688.278 134.7 689.793 134.634 691.309 134.58C694.589 134.462 697.87 134.347 701.15 134.208C703.118 134.125 705.085 134.022 707.052 133.931C709.884 133.8 712.716 133.677 715.547 133.53C718.29 133.388 721.032 133.223 723.775 133.067C725.836 132.949 727.898 132.843 729.958 132.717C734.774 132.422 739.588 132.105 744.401 131.765C750.954 131.302 757.575 130.805 764.189 130.551C766.834 130.45 769.478 130.387 772.116 130.381C773.434 130.378 774.752 130.39 776.067 130.417C778.697 130.472 781.319 130.593 783.927 130.797C787.839 131.103 791.72 131.596 795.554 132.336C796.832 132.582 798.105 132.856 799.372 133.16C801.906 133.768 804.416 134.494 806.898 135.356C808.003 135.74 809.107 136.152 810.211 136.576C812.418 137.425 814.624 138.324 816.841 139.159C822.383 141.245 827.986 142.923 833.808 142.37C835.346 142.223 836.843 141.926 838.309 141.515C841.242 140.694 844.051 139.42 846.819 138C847.742 137.526 848.659 137.036 849.576 136.541C851.408 135.552 853.234 134.542 855.077 133.603C855.538 133.368 856 133.138 856.463 132.913C863.878 129.32 873.375 127.376 879.893 132.416C881.451 133.621 882.705 135.133 883.908 136.702C885.111 138.27 886.264 139.894 887.621 141.322C889.74 143.552 892.217 145.198 894.931 146.379C899.001 148.15 903.603 148.873 908.323 148.952C913.042 149.031 917.88 148.465 922.423 147.656C934.247 145.551 953.526 139.289 964.813 135.19C965.676 135.43 966.543 135.637 967.412 135.828C967.614 135.872 967.815 135.916 968.016 135.958C968.87 136.135 969.726 136.294 970.585 136.425C970.705 136.443 970.825 136.456 970.944 136.473C971.716 136.585 972.49 136.677 973.264 136.752C973.466 136.772 973.668 136.794 973.87 136.811C974.714 136.883 975.56 136.936 976.406 136.966C976.604 136.973 976.803 136.975 977.002 136.98C977.716 136.997 978.43 137 979.144 136.988C979.35 136.984 979.557 136.985 979.764 136.979C980.582 136.956 981.4 136.912 982.217 136.852C982.48 136.832 982.743 136.808 983.006 136.784C983.669 136.726 984.331 136.655 984.992 136.572C985.209 136.545 985.426 136.524 985.642 136.494C986.418 136.387 987.19 136.259 987.961 136.121C988.285 136.062 988.609 136 988.932 135.937C989.535 135.817 990.136 135.688 990.736 135.549C991.172 135.448 991.606 135.341 992.04 135.231C992.555 135.099 993.068 134.962 993.579 134.817C993.965 134.707 994.351 134.596 994.735 134.478C995.253 134.319 995.768 134.151 996.282 133.978C996.849 133.788 997.413 133.588 997.976 133.38C998.324 133.252 998.671 133.122 999.017 132.987C999.467 132.811 999.916 132.635 1000.36 132.45C1000.56 132.369 1000.75 132.282 1000.94 132.199C1001.83 131.819 1002.7 131.42 1003.57 130.999C1003.79 130.893 1004.01 130.786 1004.22 130.679C1005.8 129.892 1007.34 129.043 1008.85 128.128C1008.94 128.071 1009.04 128.013 1009.13 127.956C1013.45 125.3 1017.46 122.131 1021.01 118.537L1021.01 118.536C1019.15 114.12 1015.84 110.589 1011.05 109.14Z" fill="#D9E5ED"/>
<path d="M925.622 41.7802C928.082 37.7842 929.786 33.3655 930.455 28.491C927.61 32.3552 926.022 37.0104 925.622 41.7802Z" fill="#D9E5ED"/>
<path d="M1267.56 875.817C1263.98 870.152 1258.28 866.163 1252.39 862.958C1231.75 851.72 1206.84 848.554 1184.04 854.271C1185.08 841.853 1179.73 829.067 1170.15 821.095C1150.44 804.691 1120.98 811.295 1096.77 819.762C1089.13 822.433 1081.37 825.299 1075.13 830.455C1068.9 835.611 1064.39 843.559 1065.44 851.58C1061.34 846.808 1042.46 856.097 1039.58 861.689C1036.71 867.28 1038 874.08 1040.06 880.02C1036.25 870.784 1026.35 864.434 1016.36 864.826C1006.38 865.218 997.004 872.326 993.93 881.832C988.041 871.596 972.294 869.536 963.157 877.018C954.021 884.5 952.421 899.104 958.623 909.153C964.178 918.153 974.917 923.199 985.518 923.122C905.161 928.125 824.689 931.281 744.187 932.568C742.172 933.007 742.983 936.231 744.684 937.396C746.384 938.562 748.768 939.49 748.938 941.545C748.944 941.617 748.932 941.677 748.927 941.742C749.137 941.759 749.348 941.774 749.558 941.791C749.887 941.427 750.245 941.076 750.665 940.755C757.276 935.704 774.98 939.266 782.934 939.284C832.088 939.393 881.245 938.086 930.324 935.367C958.447 933.809 986.545 931.788 1014.6 929.303C1007.15 927.346 1000.48 922.545 996.251 916.098C1006.26 916.625 1016.94 915.437 1024.91 909.361C1030.85 904.828 1034.54 896.903 1033.68 889.732C1033.04 887.352 1032.27 885.024 1031.14 882.835C1032.58 884.937 1033.39 887.291 1033.68 889.732C1035.03 894.747 1035.77 899.998 1037.97 904.699C1041.22 911.629 1050.44 917.07 1056.39 912.253C1060.6 908.838 1061.46 901.527 1066.71 900.151C1070.64 899.118 1074.29 902.232 1077.75 904.39C1081.2 906.548 1086.85 907.225 1088.39 903.454C1089.87 899.827 1085.92 896.533 1082.96 893.967C1076.1 888.019 1072.43 878.588 1073.46 869.565C1077.63 877.148 1086.22 881.538 1094.82 882.546C1103.42 883.554 1112.09 881.628 1120.39 879.162C1135.98 874.528 1152.49 865.993 1160.62 852.78C1161.02 848.01 1162.61 843.355 1165.45 839.491C1164.79 844.365 1163.08 848.784 1160.62 852.78C1160.03 859.854 1162.07 867.183 1166.72 872.576C1178.44 886.199 1199.4 884.576 1217.35 885.436C1227.78 885.936 1240.24 889.406 1242.99 899.481C1251.71 897.705 1259.52 891.921 1263.77 884.103C1264.12 898.018 1257.29 911.922 1246.05 920.14C1250.84 921.589 1254.15 925.12 1256.01 929.536C1264.04 921.401 1269.75 911.109 1271.45 899.708C1272.67 891.555 1271.97 882.784 1267.56 875.817Z" fill="#F3FAFE"/>
<path d="M748.927 941.742C748.034 941.671 747.141 941.61 746.248 941.537C744.719 942.81 748.792 943.539 748.927 941.742Z" fill="#F3FAFE"/>
<path d="M835.684 946.181C806.945 945.522 778.223 944.058 749.565 941.791C778.223 944.058 806.944 945.524 835.684 946.181Z" fill="#F3FAFE"/>
<path d="M1256.01 929.537C1252.46 933.132 1248.45 936.3 1244.13 938.956C1248.45 936.301 1252.46 933.132 1256.01 929.537Z" fill="#F3FAFE"/>
<path d="M1033.68 889.732C1033.39 887.291 1032.58 884.937 1031.14 882.835C1032.27 885.024 1033.04 887.352 1033.68 889.732Z" fill="#D9E5ED"/>
<path d="M1246.05 920.14C1257.29 911.922 1264.12 898.018 1263.77 884.103C1259.52 891.921 1251.71 897.705 1242.99 899.481C1240.24 889.406 1227.78 885.936 1217.35 885.436C1199.4 884.576 1178.44 886.199 1166.72 872.576C1162.07 867.183 1160.03 859.854 1160.62 852.78C1152.49 865.993 1135.98 874.528 1120.39 879.162C1112.09 881.628 1103.42 883.554 1094.82 882.546C1086.22 881.538 1077.63 877.148 1073.46 869.565C1072.43 878.588 1076.1 888.019 1082.96 893.967C1085.92 896.533 1089.87 899.827 1088.39 903.454C1086.85 907.225 1081.2 906.548 1077.75 904.39C1074.29 902.232 1070.65 899.118 1066.71 900.151C1061.46 901.527 1060.6 908.838 1056.39 912.253C1050.44 917.07 1041.22 911.629 1037.98 904.699C1035.77 899.998 1035.03 894.747 1033.68 889.732C1034.54 896.903 1030.85 904.828 1024.91 909.361C1016.94 915.437 1006.26 916.625 996.251 916.098C1000.48 922.545 1007.15 927.346 1014.6 929.303C986.546 931.788 958.448 933.809 930.324 935.367C881.245 938.086 832.088 939.393 782.935 939.284C774.98 939.266 757.276 935.704 750.665 940.755C750.245 941.076 749.888 941.427 749.559 941.791C749.561 941.791 749.563 941.791 749.566 941.791C778.224 944.058 806.945 945.522 835.685 946.181C835.744 946.182 835.803 946.183 835.863 946.185C840.583 946.292 845.303 946.379 850.024 946.443C850.2 946.446 850.375 946.446 850.551 946.448C855.15 946.51 859.749 946.552 864.349 946.572C864.725 946.573 865.101 946.571 865.477 946.572C869.882 946.588 874.287 946.589 878.692 946.567C879.269 946.564 879.845 946.555 880.422 946.552C884.627 946.526 888.833 946.489 893.038 946.429C893.876 946.417 894.714 946.396 895.552 946.382C899.499 946.32 903.446 946.25 907.393 946.156C908.545 946.129 909.697 946.09 910.849 946.06C914.487 945.966 918.125 945.87 921.763 945.75C923.278 945.7 924.793 945.634 926.309 945.58C929.589 945.462 932.87 945.347 936.15 945.208C938.118 945.125 940.085 945.022 942.052 944.931C944.884 944.8 947.716 944.677 950.547 944.53C953.29 944.388 956.032 944.223 958.775 944.067C960.836 943.949 962.898 943.843 964.958 943.717C969.774 943.422 974.588 943.105 979.401 942.765C985.954 942.302 992.575 941.805 999.189 941.551C1001.83 941.45 1004.48 941.387 1007.12 941.381C1008.43 941.378 1009.75 941.39 1011.07 941.417C1013.7 941.472 1016.32 941.593 1018.93 941.797C1022.84 942.103 1026.72 942.596 1030.55 943.336C1031.83 943.582 1033.11 943.856 1034.37 944.16C1036.91 944.768 1039.42 945.494 1041.9 946.356C1043 946.74 1044.11 947.152 1045.21 947.576C1047.42 948.425 1049.62 949.324 1051.84 950.159C1057.38 952.245 1062.99 953.923 1068.81 953.37C1070.35 953.223 1071.84 952.926 1073.31 952.515C1076.24 951.694 1079.05 950.42 1081.82 949C1082.74 948.526 1083.66 948.036 1084.58 947.541C1086.41 946.552 1088.23 945.542 1090.08 944.603C1090.54 944.368 1091 944.138 1091.46 943.913C1098.88 940.32 1108.38 938.376 1114.89 943.416C1116.45 944.621 1117.7 946.133 1118.91 947.702C1120.11 949.27 1121.26 950.894 1122.62 952.322C1124.74 954.552 1127.22 956.198 1129.93 957.379C1134 959.15 1138.6 959.873 1143.32 959.952C1148.04 960.031 1152.88 959.465 1157.42 958.656C1169.25 956.551 1188.53 950.289 1199.81 946.19C1200.68 946.43 1201.54 946.637 1202.41 946.828C1202.61 946.872 1202.81 946.916 1203.02 946.958C1203.87 947.135 1204.73 947.294 1205.59 947.425C1205.7 947.443 1205.82 947.456 1205.94 947.473C1206.72 947.585 1207.49 947.677 1208.26 947.752C1208.47 947.772 1208.67 947.794 1208.87 947.811C1209.71 947.883 1210.56 947.936 1211.41 947.966C1211.6 947.973 1211.8 947.975 1212 947.98C1212.72 947.997 1213.43 948 1214.14 947.988C1214.35 947.984 1214.56 947.985 1214.76 947.979C1215.58 947.956 1216.4 947.912 1217.22 947.852C1217.48 947.832 1217.74 947.808 1218.01 947.784C1218.67 947.726 1219.33 947.655 1219.99 947.572C1220.21 947.545 1220.43 947.524 1220.64 947.494C1221.42 947.387 1222.19 947.259 1222.96 947.121C1223.29 947.062 1223.61 947 1223.93 946.937C1224.54 946.817 1225.14 946.688 1225.74 946.549C1226.17 946.448 1226.61 946.341 1227.04 946.231C1227.55 946.099 1228.07 945.962 1228.58 945.817C1228.96 945.707 1229.35 945.596 1229.73 945.478C1230.25 945.319 1230.77 945.151 1231.28 944.978C1231.85 944.788 1232.41 944.588 1232.98 944.38C1233.32 944.252 1233.67 944.122 1234.02 943.987C1234.47 943.811 1234.92 943.635 1235.36 943.45C1235.56 943.369 1235.75 943.282 1235.94 943.199C1236.83 942.819 1237.7 942.42 1238.57 941.999C1238.79 941.893 1239.01 941.786 1239.22 941.679C1240.8 940.892 1242.34 940.043 1243.85 939.128C1243.94 939.071 1244.04 939.013 1244.13 938.956C1248.45 936.3 1252.46 933.131 1256.01 929.537L1256.01 929.536C1254.15 925.12 1250.84 921.589 1246.05 920.14Z" fill="#D9E5ED"/>
<path d="M1160.62 852.78C1163.08 848.784 1164.79 844.365 1165.45 839.491C1162.61 843.355 1161.02 848.01 1160.62 852.78Z" fill="#D9E5ED"/>
<path d="M970.749 642.205C965.11 643.136 968.883 645.351 975.415 645.919C981.947 646.487 989.226 646.017 996.094 645.706C1012.48 644.965 1029.38 645.174 1046.07 645.387C1068.56 645.673 1091.04 645.959 1113.52 646.245C1137.36 646.548 1161.27 646.852 1185.11 646.523C1189.15 646.467 1193.39 646.378 1196.76 645.874C1200.12 645.37 1202.19 644.31 1200.18 643.523C1195.63 642.709 1189.17 642.472 1183.71 642.917C1181.2 643.122 1178.92 643.457 1176.37 643.633C1173.22 643.853 1169.84 643.817 1166.54 643.78C1147.76 643.567 1128.98 643.353 1110.2 643.14C1105.15 643.083 1098.64 642.731 1098.18 641.603C1091.48 641.059 1083.24 640.57 1077.85 641.614C1075.62 642.046 1074.21 642.699 1071.54 642.98C1069.61 643.183 1067.37 643.15 1065.24 643.113C1050.06 642.846 1034.88 642.58 1019.7 642.314C1010.42 642.152 1001.23 642.845 992.571 642.773C987.001 642.727 975.893 641.355 970.749 642.205Z" fill="#ECF2F6"/>
<path d="M266.581 844.72C287.936 844.814 309.134 842.201 330.154 843.248C346.103 844.042 360.391 846.894 376.586 847.041C373.106 848.343 366.122 848.483 360.507 848.027C354.893 847.571 349.857 846.659 344.204 846.241C329.6 845.163 314.877 847.379 300.309 847.508C287.52 847.621 274.179 846.775 261.45 846.4C247.835 845.999 226.815 846.407 215 844.498C230.953 842.593 249.955 844.648 266.581 844.72Z" fill="#C6D7E4"/>
</svg>
